# AST/ASF file generated using VICON BodyLanguage
# -----------------------------------------------
:version 1.10
:name VICON
:units
  mass 1.0
  length 0.45
  angle deg
:documentation
   .ast/.asf automatically generated from VICON data using
   VICON BodyBuilder and BodyLanguage model FoxedUp or BRILLIANT.MOD
:root
   order TX TY TZ RX RY RZ
   axis XYZ
   position 0 0 0  
   orientation 0 0 0 
:bonedata
  begin
     id 1 
     name lhipjoint
     direction 0.722297 -0.617336 0.311742 
     length 2.6635 
     axis 0 0 0  XYZ
  end
  begin
     id 2 
     name lfemur
     direction 0.34202 -0.939693 0  
     length 7.39349  
     axis 0 0 20  XYZ
    dof rx ry rz
    limits (-160.0 20.0)
           (-70.0 70.0)
           (-60.0 70.0)
  end
  begin
     id 3 
     name ltibia
     direction 0.34202 -0.939693 0   
     length 7.36294   
     axis 0 0 20   XYZ
    dof rx
    limits (-10.0 170.0)
  end
  begin
     id 4 
     name lfoot
     direction 0.104879 -0.288152 0.951824   
     length 2.16981   
     axis -90 7.62852e-016 20   XYZ
    dof rx rz
    limits (-45.0 90.0)
           (-70.0 20.0)
  end
  begin
     id 5 
     name ltoes
     direction 1.53586e-011 -4.21895e-011 1   
     length 1.08218   
     axis -90 7.62852e-016 20   XYZ
    dof rx
    limits (-90.0 20.0)
  end
  begin
     id 6 
     name rhipjoint
     direction -0.75102 -0.589393 0.297631   
     length 2.78977  
     axis 0 0 0  XYZ 
  end
  begin
     id 7 
     name rfemur
     direction -0.34202 -0.939693 0   
     length 7.46076   
     axis 0 0 -20   XYZ
    dof rx ry rz
    limits (-160.0 20.0)
           (-70.0 70.0)
           (-70.0 60.0)
  end
  begin
     id 8 
     name rtibia
     direction -0.34202 -0.939693 0   
     length 7.31726   
     axis 0 0 -20   XYZ
    dof rx
    limits (-10.0 170.0)
 end
 begin
     id 9 
     name rfoot
     direction -0.107991 -0.296704 0.948844   
     length 2.09388  
     axis -90 -7.62852e-016 -20   XYZ
    dof rx rz
    limits (-45.0 90.0)
           (-20.0 70.0)
  end
  begin
     id 10 
     name rtoes
     direction -1.53559e-011 -4.21911e-011 1   
     length 1.04433   
     axis -90 -7.62852e-016 -20   XYZ
    dof rx
    limits (-90.0 20.0)
  end
  begin
     id 11 
     name lowerback
     direction 0.0165164 0.98272 0.184358   
     length 1.71896   
     axis 0 0 0   XYZ
    dof rx ry rz
    limits (-20.0 45.0)
           (-30.0 30.0)
           (-30.0 30.0)
  end
  begin
     id 12 
     name upperback
     direction -0.00887249 0.992297 0.123566   
     length 1.71504   
     axis 0 0 0   XYZ
    dof rx ry rz
    limits (-20.0 45.0)
           (-30.0 30.0)
           (-30.0 30.0)
  end
  begin
     id 13 
     name thorax
     direction -0.0157026 0.998908 0.0440032   
     length 1.77022   
     axis 0 0 0   XYZ
    dof rx ry rz
    limits (-20.0 45.0)
           (-30.0 30.0)
           (-30.0 30.0)
  end
  begin
     id 14 
     name lowerneck
     direction -0.0238856 0.998137 0.0561411   
     length 1.89341   
     axis 0 0 0   XYZ
    dof rx ry rz
    limits (-20.0 45.0)
           (-30.0 30.0)
           (-30.0 30.0)
  end
  begin
     id 15 
     name upperneck
     direction 0.0276574 0.952253 -0.304056   
     length 1.86999   
     axis 0 0 0   XYZ
    dof rx ry rz
    limits (-20.0 45.0)
           (-30.0 30.0)
           (-30.0 30.0)
  end
  begin
     id 16
     name head
     direction 0.00800083 0.994258 -0.106712  
     length 1.91492  
     axis 0 0 0   XYZ
    dof rx ry rz
    limits (-20.0 45.0)
           (-30.0 30.0)
           (-30.0 30.0)
  end
  begin
     id 17 
     name lclavicle
     direction 0.97203 0.225407 0.06595  
     length 3.34889  
     axis 0 0 0   XYZ
    dof ry rz
    limits (-20.0 10.0)
           (0.0 20.0)
  end
  begin
     id 18 
     name lhumerus
     direction 1 -4.48973e-011 2.20267e-027   
     length 4.85645   
     axis 180 -30 -90   XYZ
    dof rx ry rz
    limits (-60.0 90.0)
           (-90.0 90.0)
           (-90.0 90.0)
  end
  begin
     id 19
     name lradius
     direction 1 -4.4897e-011 4.60472e-027   
     length 2.79874   
     axis 180 -30 -90   XYZ
    dof rx
    limits (-10.0 170.0)
  end
  begin
     id 20
     name lwrist
     direction 1 -4.48952e-011 1.14928e-026   
     length 1.39937   
     axis -6.29373e-015 90 90   XYZ
    dof ry
    limits (-180.0 0.0)
 end
  begin
     id 21 
     name lhand
     direction 1 -4.48967e-011 2.29886e-026   
     length 0.573398   
     axis -1.46689e-014 90 90   XYZ
    dof rx rz
    limits (-90.0 90.0)
           (-45.0 45.0)
  end
  begin
     id 22 
     name lfingers
     direction 1 -4.48955e-011 4.59726e-026   
     length 0.462289   
     axis -2.93383e-014 90 90   XYZ
    dof rx
    limits (0.0 90.0)
  end
  begin
     id 23
     name lthumb
     direction 0.707107 -6.34866e-011 0.707107   
     length 0.663757   
     axis -90 45 5.69224e-014   XYZ
    dof rx rz
    limits (-45.0 45.0)
           (-45.0 45.0)
  end
  begin
     id 24 
     name rclavicle
     direction -0.981571 0.157346 0.108443   
     length 3.35257  
     axis 0 0 0   XYZ 
    dof ry rz
    limits (-10.0 20.0)
           (-20.0 0.0)
  end
  begin
     id 25 
     name rhumerus
     direction -1 -4.48967e-011 8.58308e-029  
     length 4.67018   
     axis 180 30 90   XYZ
    dof rx ry rz
    limits (-90.0 60.0)
           (-90.0 90.0)
           (-90.0 90.0)
  end
  begin
     id 26 
     name rradius
     direction -1 -4.48958e-011 4.52548e-027   
     length 2.65534   
     axis 180 30 90   XYZ
    dof rx
    limits (-10.0 170.0)
  end
  begin
     id 27 
     name rwrist
     direction -1 -4.48977e-011 1.14952e-026   
     length 1.32767   
     axis -6.29373e-015 -90 -90   XYZ
    dof ry
    limits (-180.0 0.0)
  end
  begin
     id 28
     name rhand
     direction -1 -4.48924e-011 2.29804e-026   
     length 0.594069   
     axis -1.46689e-014 -90 -90   XYZ
    dof rx rz
    limits (-90.0 90.0)
           (-45.0 45.0)
  end
  begin
     id 29
     name rfingers
     direction -1 -4.48998e-011 4.59888e-026   
     length 0.478954   
     axis -2.93383e-014 -90 -90   XYZ
    dof rx
    limits (0.0 90.0)
  end
  begin
     id 30
     name rthumb
     direction -0.707107 -6.34933e-011 0.707107   
     length 0.687685   
     axis -90 -45 -5.69224e-014   XYZ
    dof rx rz
    limits (-45.0 45.0)
           (-45.0 45.0)
  end
:hierarchy
  begin
    root lhipjoint rhipjoint lowerback
    lhipjoint lfemur
    lfemur ltibia
    ltibia lfoot
    lfoot ltoes
    rhipjoint rfemur
    rfemur rtibia
    rtibia rfoot
    rfoot rtoes
    lowerback upperback
    upperback thorax
    thorax lowerneck lclavicle rclavicle
    lowerneck upperneck
    upperneck head
    lclavicle lhumerus
    lhumerus lradius
    lradius lwrist
    lwrist lhand lthumb
    lhand lfingers
    rclavicle rhumerus
    rhumerus rradius
    rradius rwrist
    rwrist rhand rthumb
    rhand rfingers
  end

#!OML:ASF E:\pregnant2\Project 1\Capture day 1\Session 1\pregnant2.ASF
:FULLY-SPECIFIED
:DEGREES
759
root 8.21403 24.6188 -21.0277 -149.173 -44.9328 178.744
lowerback 0.938781 -7.20615 -14.3642
upperback -24.6609 -15.8776 14.7178
thorax -21.7687 -3.93315 31.0554
lowerneck 2.76686 23.5369 -5.80298
upperneck 54.2657 29.8744 -9.82186
head 26.5149 4.54741 -2.24312
rclavicle 6.99722e-014 -1.27222e-014
rhumerus -70.5663 50.9673 -97.3444
rradius 46.6131
rwrist -0.411213
rhand -13.9325 -15.9296
rfingers 7.12502
rthumb 12.1942 -45.5542
lclavicle 6.99722e-014 -1.27222e-014
lhumerus -86.4376 35.329 68.2312
lradius 39.2572
lwrist 0.932872
lhand -10.2296 26.8133
lfingers 7.12502
lthumb 15.7625 56.1915
rfemur -47.2685 -0.876632 28.7107
rtibia 42.7727
rfoot -27.7216 -29.6062
rtoes 12.06
lfemur -54.7948 3.69111 -35.885
ltibia 36.8195
lfoot -14.9474 35.9415
ltoes 14.7226
760
root 8.19085 24.6142 -21.0719 -148.93 -45.6894 178.288
lowerback 1.07243 -7.27878 -14.6611
upperback -24.8013 -16.0676 14.6235
thorax -21.9241 -3.90698 31.1963
lowerneck 2.88459 23.5922 -5.84765
upperneck 54.3814 29.9662 -9.67136
head 26.5227 4.60052 -2.14847
rclavicle -1.33583e-013 5.40694e-014
rhumerus -71.1906 50.8064 -97.6638
rradius 46.6262
rwrist -0.526681
rhand -14.1024 -15.9681
rfingers 7.12502
rthumb 12.0303 -45.6023
lclavicle -1.33583e-013 5.40694e-014
lhumerus -86.8263 35.238 67.87
lradius 38.9817
lwrist 0.721486
lhand -10.206 26.8533
lfingers 7.12502
lthumb 15.7852 56.2297
rfemur -47.2738 -1.34102 28.6227
rtibia 43.3767
rfoot -28.057 -29.6694
rtoes 11.7819
lfemur -54.3694 3.37352 -35.994
ltibia 36.6822
lfoot -14.8669 35.4168
ltoes 14.1614
761
root 8.16725 24.6104 -21.1157 -148.757 -46.499 177.921
lowerback 1.20385 -7.34744 -14.8652
upperback -24.924 -16.2319 14.5482
thorax -22.0822 -3.88495 31.3031
lowerneck 3.03784 23.6374 -5.87413
upperneck 54.4643 30.0457 -9.57281
head 26.5112 4.65545 -2.08881
rclavicle 8.74653e-015 -7.63333e-014
rhumerus -71.8426 50.6482 -98.0052
rradius 46.6308
rwrist -0.674874
rhand -14.3117 -16.0311
rfingers 7.12502
rthumb 11.8285 -45.677
lclavicle 8.74653e-015 -7.63333e-014
lhumerus -87.2481 35.1961 67.3334
lradius 38.6324
lwrist 0.36067
lhand -10.1351 26.8047
lfingers 7.12502
lthumb 15.8535 56.1757
rfemur -47.2342 -1.80546 28.6037
rtibia 43.9614
rfoot -28.3057 -29.678
rtoes 11.4449
lfemur -53.9517 3.14166 -36.0766
ltibia 36.564
lfoot -14.7656 34.8184
ltoes 13.5042
762
root 8.14279 24.6093 -21.1582 -148.676 -47.3509 177.659
lowerback 1.33415 -7.41149 -14.9692
upperback -25.0212 -16.3647 14.4964
thorax -22.2364 -3.86725 31.376
lowerneck 3.22691 23.672 -5.88315
upperneck 54.5027 30.1161 -9.54278
head 26.4769 4.71281 -2.07233
rclavicle -1.55052e-013 -1.55847e-013
rhumerus -72.5106 50.5098 -98.3714
rradius 46.6268
rwrist -0.839666
rhand -14.4962 -16.1027
rfingers 7.12502
rthumb 11.6506 -45.7587
lclavicle -1.55052e-013 -1.55847e-013
lhumerus -87.6337 35.1642 66.825
lradius 38.3375
lwrist 0.0393209
lhand -10.0729 26.8193
lfingers 7.12502
lthumb 15.9135 56.1855
rfemur -47.1307 -2.25658 28.6445
rtibia 44.5053
rfoot -28.4362 -29.6178
rtoes 11.0244
lfemur -53.5232 2.97889 -36.099
ltibia 36.4443
lfoot -14.6941 34.1673
ltoes 12.9502
763
root 8.11693 24.6113 -21.1976 -148.682 -48.2321 177.495
lowerback 1.47048 -7.46406 -14.9659
upperback -25.0958 -16.458 14.4583
thorax -22.4081 -3.8469 31.4058
lowerneck 3.44609 23.7094 -5.87278
upperneck 54.5173 30.193 -9.55041
head 26.4331 4.77869 -2.07985
rclavicle -1.19271e-014 6.04305e-014
rhumerus -73.192 50.3955 -98.7641
rradius 46.6102
rwrist -1.00414
rhand -14.6167 -16.1532
rfingers 7.12502
rthumb 11.5344 -45.8158
lclavicle -1.19271e-014 6.04305e-014
lhumerus -88.0132 35.162 66.2764
lradius 38.063
lwrist -0.290922
lhand -10.0228 26.8677
lfingers 7.12502
lthumb 15.9617 56.23
rfemur -46.9744 -2.70462 28.7251
rtibia 45.0128
rfoot -28.4012 -29.4759
rtoes 10.4274
lfemur -53.0761 2.83987 -36.045
ltibia 36.3082
lfoot -14.6689 33.5032
ltoes 12.539
764
root 8.08979 24.6161 -21.2333 -148.761 -49.1282 177.409
lowerback 1.61563 -7.50698 -14.8767
upperback -25.1507 -16.5189 14.4295
thorax -22.5963 -3.82351 31.4004
lowerneck 3.71027 23.74 -5.8302
upperneck 54.4948 30.2597 -9.62236
head 26.377 4.84812 -2.13245
rclavicle 1.35174e-014 -2.06736e-013
rhumerus -73.8846 50.3081 -99.1919
rradius 46.5758
rwrist -1.14325
rhand -14.6507 -16.1631
rfingers 7.12502
rthumb 11.5016 -45.8275
lclavicle 1.35174e-014 -2.06736e-013
lhumerus -88.3813 35.1711 65.7481
lradius 37.8606
lwrist -0.572819
lhand -9.95374 26.9308
lfingers 7.12502
lthumb 16.0282 56.2878
rfemur -46.7806 -3.14496 28.8182
rtibia 45.5023
rfoot -28.1805 -29.2612
rtoes 9.57275
lfemur -52.6046 2.69572 -35.9188
ltibia 36.1472
lfoot -14.6656 32.857
ltoes 12.2129
765
root 8.06132 24.6226 -21.2646 -148.878 -50.0112 177.376
lowerback 1.75378 -7.53531 -14.7238
upperback -25.1917 -16.5441 14.4045
thorax -22.7973 -3.79378 31.3618
lowerneck 3.95913 23.7837 -5.79822
upperneck 54.4793 30.3515 -9.68104
head 26.3297 4.92511 -2.17049
rclavicle 6.83819e-014 -4.45278e-014
rhumerus -74.5842 50.2675 -99.6595
rradius 46.521
rwrist -1.26145
rhand -14.6013 -16.1255
rfingers 7.12502
rthumb 11.5493 -45.7873
lclavicle 6.83819e-014 -4.45278e-014
lhumerus -88.7061 35.1809 65.3188
lradius 37.7534
lwrist -0.734129
lhand -9.90021 27.0628
lfingers 7.12502
lthumb 16.0797 56.4156
rfemur -46.5966 -3.57234 28.8953
rtibia 46.0043
rfoot -27.7745 -28.9681
rtoes 8.49771
lfemur -52.1273 2.51417 -35.7339
ltibia 35.9611
lfoot -14.6964 32.2602
ltoes 11.9581
766
root 8.03253 24.6298 -21.2928 -149.005 -50.8811 177.362
lowerback 1.88421 -7.56588 -14.5491
upperback -25.2259 -16.5645 14.3898
thorax -22.9872 -3.76944 31.3184
lowerneck 4.23598 23.8347 -5.73347
upperneck 54.4325 30.4591 -9.78674
head 26.2786 5.01566 -2.23721
rclavicle -6.83819e-014 -8.5875e-014
rhumerus -75.3246 50.3072 -100.228
rradius 46.4431
rwrist -1.35196
rhand -14.5105 -16.0511
rfingers 7.12502
rthumb 11.6369 -45.7079
lclavicle -6.83819e-014 -8.5875e-014
lhumerus -89.0039 35.199 64.9911
lradius 37.7746
lwrist -0.731568
lhand -9.82832 27.2442
lfingers 7.12502
lthumb 16.149 56.5915
rfemur -46.4446 -3.98674 28.9425
rtibia 46.5457
rfoot -27.2182 -28.6102
rtoes 7.25458
lfemur -51.6492 2.28845 -35.5143
ltibia 35.7534
lfoot -14.7444 31.713
ltoes 11.7579
767
root 8.00422 24.6375 -21.319 -149.124 -51.7391 177.346
lowerback 2.01107 -7.59819 -14.3945
upperback -25.2527 -16.5865 14.3956
thorax -23.1508 -3.74541 31.3128
lowerneck 4.48185 23.8936 -5.69482
upperneck 54.3743 30.5976 -9.91515
head 26.2399 5.10967 -2.30516
rclavicle -1.03368e-014 -2.54444e-014
rhumerus -76.0936 50.4392 -100.862
rradius 46.3454
rwrist -1.42745
rhand -14.4612 -15.9519
rfingers 7.12502
rthumb 11.6844 -45.6061
lclavicle -1.03368e-014 -2.54444e-014
lhumerus -89.3281 35.2961 64.6122
lradius 37.824
lwrist -0.716258
lhand -9.74246 27.3816
lfingers 7.12502
lthumb 16.2316 56.7221
rfemur -46.3397 -4.38838 28.9567
rtibia 47.1492
rfoot -26.5526 -28.1939
rtoes 5.96418
lfemur -51.1727 2.01584 -35.2756
ltibia 35.5307
lfoot -14.7894 31.2212
ltoes 11.5585
768
root 7.97692 24.6456 -21.3446 -149.223 -52.5994 177.313
lowerback 2.1389 -7.6366 -14.274
upperback -25.2788 -16.622 14.4213
thorax -23.2911 -3.72274 31.3561
lowerneck 4.69629 23.9628 -5.68317
upperneck 54.3163 30.7666 -10.0473
head 26.2158 5.20744 -2.36419
rclavicle 2.06736e-014 7.95139e-014
rhumerus -76.8666 50.6055 -101.522
rradius 46.2164
rwrist -1.43316
rhand -14.4724 -15.8367
rfingers 7.12502
rthumb 11.6736 -45.4915
lclavicle 2.06736e-014 7.95139e-014
lhumerus -89.629 35.4164 64.352
lradius 37.9812
lwrist -0.55339
lhand -9.70443 27.522
lfingers 7.12502
lthumb 16.2683 56.8595
rfemur -46.2914 -4.77663 28.9418
rtibia 47.8281
rfoot -25.8235 -27.7339
rtoes 4.73053
lfemur -50.7036 1.71521 -35.0389
ltibia 35.3015
lfoot -14.8185 30.7532
ltoes 11.316
769
root 7.95096 24.654 -21.3709 -149.299 -53.4694 177.253
lowerback 2.28067 -7.68052 -14.1944
upperback -25.3107 -16.677 14.4544
thorax -23.4277 -3.69801 31.4438
lowerneck 4.91698 24.0361 -5.6684
upperneck 54.2601 30.9409 -10.1782
head 26.1952 5.30853 -2.42288
rclavicle -6.44062e-014 4.45278e-014
rhumerus -77.6699 50.795 -102.225
rradius 46.0611
rwrist -1.40317
rhand -14.4795 -15.6906
rfingers 7.12502
rthumb 11.6668 -45.3457
lclavicle -6.44062e-014 4.45278e-014
lhumerus -89.9694 35.5555 64.0722
lradius 38.1757
lwrist -0.357828
lhand -9.66295 27.6035
lfingers 7.12502
lthumb 16.3082 56.9377
rfemur -46.2923 -5.14945 28.9025
rtibia 48.59
rfoot -25.0601 -27.2556
rtoes 3.55982
lfemur -50.2316 1.39329 -34.8019
ltibia 35.0739
lfoot -14.8969 30.2738
ltoes 11.1853
